<svg width="40" height="40" viewBox="0 0 40 40" fill="none" xmlns="http://www.w3.org/2000/svg">
<path fill-rule="evenodd" clip-rule="evenodd" d="M17.8037 15.0282C14.0907 11.976 11.082 8.34124 8.82114 4.10645C8.36896 3.26297 7.31682 2.94123 6.46465 3.3934C5.62117 3.84558 5.29937 4.89777 5.75155 5.74994C8.2385 10.3847 11.5255 14.3673 15.5951 17.7152C16.3342 18.3239 17.4385 18.2195 18.0472 17.4804C18.6559 16.7325 18.5428 15.6369 17.8037 15.0282Z" fill="#D46B45"/>
<path fill-rule="evenodd" clip-rule="evenodd" d="M15.8238 3.14127C16.0151 6.65431 16.1891 10.1674 16.4065 13.6804C16.4673 14.6369 17.2934 15.3673 18.2499 15.3065C19.2065 15.2456 19.9369 14.4195 19.876 13.463C19.6586 9.95866 19.4847 6.45433 19.2934 2.94129C19.2412 1.98737 18.4151 1.25259 17.4586 1.3065C16.5021 1.36041 15.7629 2.18214 15.8238 3.14127Z" fill="#D46B45"/>
<path fill-rule="evenodd" clip-rule="evenodd" d="M28.7334 3.85437C26.5073 7.21089 23.9856 10.3065 21.4465 13.4369C20.8378 14.1848 20.9508 15.2805 21.6986 15.8805C22.4464 16.4892 23.5421 16.3761 24.1421 15.6283C26.7508 12.4196 29.3421 9.22825 31.6378 5.77607C32.1682 4.97607 31.9421 3.89785 31.1421 3.36741C30.3508 2.83698 29.2638 3.05437 28.7334 3.85437Z" fill="#D46B45"/>
<path fill-rule="evenodd" clip-rule="evenodd" d="M37.3563 16.3326C31.3215 16.6022 24.9128 16.6109 18.878 16.2282C17.9215 16.1761 17.0954 16.8978 17.0346 17.863C16.9737 18.8196 17.7041 19.6456 18.6606 19.7065C24.8172 20.0891 31.3563 20.0804 37.5129 19.8108C38.4694 19.7674 39.2171 18.95 39.1737 17.9935C39.1302 17.037 38.3128 16.2891 37.3563 16.3326Z" fill="#D46B45"/>
<path fill-rule="evenodd" clip-rule="evenodd" d="M15.5904 17.4368C19.3121 21.9933 23.1643 26.463 26.6165 31.2282C27.1817 32.0021 28.2687 32.1759 29.0513 31.6107C29.8252 31.0455 29.9991 29.9585 29.4339 29.1846C25.9382 24.3672 22.0426 19.8455 18.2774 15.2368C17.6687 14.4977 16.573 14.3847 15.8339 14.9934C15.086 15.602 14.9817 16.6977 15.5904 17.4368Z" fill="#D46B45"/>
<path fill-rule="evenodd" clip-rule="evenodd" d="M16.7175 18.759C17.6914 23.5068 17.961 28.0459 18.0305 32.8546C18.0392 33.8112 18.8306 34.5764 19.7871 34.5677C20.7523 34.5503 21.5175 33.7676 21.5001 32.8024C21.4305 27.7676 21.1436 23.0285 20.1262 18.0546C19.9262 17.1155 19.0132 16.5068 18.0654 16.7068C17.1262 16.8981 16.5175 17.8198 16.7175 18.759Z" fill="#D46B45"/>
<path fill-rule="evenodd" clip-rule="evenodd" d="M16.8745 18.3765C14.0571 24.0113 12.6049 30.2722 9.58753 35.7852C9.12667 36.62 9.43965 37.6809 10.2831 38.1417C11.1266 38.6026 12.1788 38.2895 12.6397 37.4547C15.6745 31.9069 17.144 25.6113 19.9875 19.933C20.4136 19.0722 20.0657 18.0287 19.2136 17.5939C18.3527 17.1678 17.3093 17.5157 16.8745 18.3765Z" fill="#D46B45"/>
<path fill-rule="evenodd" clip-rule="evenodd" d="M18.425 17.0978C12.8163 18.0891 7.21634 18.5413 1.57286 19.2108C0.616341 19.3239 -0.0619195 20.1848 0.0511239 21.1413C0.164167 22.0978 1.02512 22.7761 1.98164 22.663C7.68599 21.9935 13.3555 21.5239 19.0338 20.5239C19.9729 20.35 20.6077 19.4456 20.4425 18.5065C20.2686 17.5587 19.3729 16.9239 18.425 17.0978Z" fill="#D46B45"/>
<path fill-rule="evenodd" clip-rule="evenodd" d="M22.3277 14.4548C21.1712 14.4026 20.0755 14.3243 18.9451 14.1591C17.9885 14.02 17.1103 14.6809 16.9711 15.6287C16.832 16.5765 17.4928 17.4635 18.4407 17.6026C19.6928 17.7852 20.9016 17.8722 22.1711 17.9244C23.1276 17.9678 23.945 17.2287 23.9798 16.2635C24.0233 15.3069 23.2842 14.4983 22.3277 14.4548Z" fill="#D46B45"/>
</svg>
