<svg preserveAspectRatio="xMidYMid meet" width="31.3094" height="29.6408" overflow="visible" style="display: block;" viewBox="0 0 31.3094 29.6408" fill="none" xmlns="http://www.w3.org/2000/svg">
<g id="Group">
<path id="Vector" fill-rule="evenodd" clip-rule="evenodd" d="M14.2119 10.9796C11.2414 8.53785 8.8345 5.63002 7.02581 2.24219C6.66407 1.56741 5.82236 1.31002 5.14062 1.67175C4.46583 2.03349 4.2084 2.87525 4.57013 3.55699C6.5597 7.26481 9.18931 10.4509 12.445 13.1292C13.0363 13.6161 13.9197 13.5326 14.4067 12.9413C14.8936 12.3431 14.8032 11.4665 14.2119 10.9796Z" fill="var(--fill-0, #A3B2A2)"/>
<path id="Vector_2" fill-rule="evenodd" clip-rule="evenodd" d="M12.6279 1.47005C12.7809 4.28048 12.9201 7.09091 13.094 9.90135C13.1427 10.6666 13.8036 11.2509 14.5688 11.2022C15.334 11.1535 15.9184 10.4927 15.8697 9.72743C15.6958 6.92396 15.5566 4.12049 15.4035 1.31006C15.3618 0.546929 14.701 -0.0409006 13.9357 0.00222981C13.1705 0.0453602 12.5792 0.702741 12.6279 1.47005Z" fill="var(--fill-0, #A3B2A2)"/>
<path id="Vector_3" fill-rule="evenodd" clip-rule="evenodd" d="M22.9556 2.04052C21.1747 4.72574 19.1574 7.20224 17.1261 9.70658C16.6391 10.3048 16.7295 11.1814 17.3278 11.6614C17.926 12.1484 18.8026 12.0579 19.2826 11.4596C21.3696 8.89268 23.4426 6.33963 25.2791 3.57789C25.7035 2.93789 25.5226 2.07531 24.8826 1.65096C24.2495 1.22661 23.3799 1.40052 22.9556 2.04052Z" fill="var(--fill-0, #A3B2A2)"/>
<path id="Vector_4" fill-rule="evenodd" clip-rule="evenodd" d="M29.8541 12.0231C25.0262 12.2388 19.8993 12.2457 15.0714 11.9396C14.3062 11.8979 13.6454 12.4753 13.5967 13.2475C13.548 14.0127 14.1323 14.6735 14.8975 14.7222C19.8227 15.0283 25.0541 15.0214 29.9793 14.8057C30.7445 14.7709 31.3427 14.117 31.3079 13.3518C31.2732 12.5866 30.6193 11.9883 29.8541 12.0231Z" fill="var(--fill-0, #A3B2A2)"/>
<path id="Vector_5" fill-rule="evenodd" clip-rule="evenodd" d="M12.4413 12.9065C15.4187 16.5517 18.5005 20.1274 21.2622 23.9396C21.7144 24.5587 22.584 24.6978 23.2101 24.2456C23.8292 23.7934 23.9683 22.9239 23.5161 22.3047C20.7196 18.4508 17.6031 14.8334 14.5909 11.1465C14.104 10.5552 13.2274 10.4648 12.6361 10.9517C12.0379 11.4387 11.9544 12.3152 12.4413 12.9065Z" fill="var(--fill-0, #A3B2A2)"/>
<path id="Vector_6" fill-rule="evenodd" clip-rule="evenodd" d="M13.343 13.9642C14.1221 17.7625 14.3378 21.3938 14.3934 25.2407C14.4004 26.006 15.0334 26.6181 15.7986 26.6112C16.5708 26.5972 17.183 25.9711 17.1691 25.199C17.1134 21.1711 16.8839 17.3799 16.07 13.4007C15.91 12.6494 15.1795 12.1624 14.4213 12.3224C13.67 12.4755 13.183 13.2129 13.343 13.9642Z" fill="var(--fill-0, #A3B2A2)"/>
<path id="Vector_7" fill-rule="evenodd" clip-rule="evenodd" d="M13.4686 13.6583C11.2147 18.1661 10.0529 23.1748 7.639 27.5852C7.2703 28.2531 7.52069 29.1017 8.19547 29.4704C8.87025 29.8391 9.71205 29.5886 10.0807 28.9208C12.5086 24.4826 13.6842 19.4461 15.959 14.9035C16.2998 14.2148 16.0216 13.38 15.3398 13.0322C14.6511 12.6913 13.8164 12.9696 13.4686 13.6583Z" fill="var(--fill-0, #A3B2A2)"/>
<path id="Vector_8" fill-rule="evenodd" clip-rule="evenodd" d="M14.709 12.6353C10.222 13.4283 5.74202 13.79 1.22724 14.3257C0.462018 14.4161 -0.0805903 15.1048 0.00984446 15.8701C0.100279 16.6353 0.789039 17.1779 1.55426 17.0875C6.11773 16.5518 10.6534 16.1761 15.196 15.3761C15.9473 15.237 16.4551 14.5135 16.3229 13.7622C16.1838 13.004 15.4672 12.4961 14.709 12.6353Z" fill="var(--fill-0, #A3B2A2)"/>
<path id="Vector_9" fill-rule="evenodd" clip-rule="evenodd" d="M17.8311 10.5209C16.9059 10.4791 16.0294 10.4165 15.125 10.2843C14.3598 10.173 13.6572 10.7017 13.5459 11.46C13.4346 12.2182 13.9632 12.9278 14.7215 13.0391C15.7232 13.1852 16.6902 13.2548 17.7059 13.2965C18.4711 13.3313 19.125 12.74 19.1528 11.9678C19.1876 11.2026 18.5964 10.5556 17.8311 10.5209Z" fill="var(--fill-0, #A3B2A2)"/>
</g>
</svg>
