<svg preserveAspectRatio="xMidYMid meet" width="23.482" height="22.2306" overflow="visible" style="display: block;" viewBox="0 0 23.482 22.2306" fill="none" xmlns="http://www.w3.org/2000/svg">
<g id="Group">
<path id="Vector" fill-rule="evenodd" clip-rule="evenodd" d="M10.6589 8.23469C8.43107 6.40338 6.62588 4.22252 5.26936 1.68165C4.99805 1.17556 4.36677 0.982511 3.85546 1.25382C3.34938 1.52512 3.1563 2.15644 3.4276 2.66774C4.91977 5.44861 6.89198 7.83818 9.33372 9.84688C9.7772 10.2121 10.4398 10.1495 10.805 9.706C11.1702 9.2573 11.1024 8.59991 10.6589 8.23469Z" fill="var(--fill-0, #F5F2E9)"/>
<path id="Vector_2" fill-rule="evenodd" clip-rule="evenodd" d="M9.47093 1.10253C9.58571 3.21036 9.69008 5.31818 9.82052 7.42601C9.85704 7.99992 10.3527 8.43818 10.9266 8.40166C11.5005 8.36514 11.9388 7.86949 11.9023 7.29558C11.7718 5.19297 11.6674 3.09037 11.5527 0.982545C11.5214 0.410197 11.0257 -0.0306755 10.4518 0.00167232C9.87789 0.0340202 9.43441 0.527056 9.47093 1.10253Z" fill="var(--fill-0, #F5F2E9)"/>
<path id="Vector_3" fill-rule="evenodd" clip-rule="evenodd" d="M17.2166 1.53064C15.8809 3.54455 14.368 5.40192 12.8445 7.28018C12.4793 7.72888 12.547 8.3863 12.9957 8.7463C13.4444 9.11152 14.1019 9.04367 14.4619 8.59497C16.0271 6.66976 17.5818 4.75497 18.9592 2.68366C19.2775 2.20366 19.1418 1.55673 18.6618 1.23847C18.187 0.920204 17.5348 1.05064 17.2166 1.53064Z" fill="var(--fill-0, #F5F2E9)"/>
<path id="Vector_4" fill-rule="evenodd" clip-rule="evenodd" d="M22.3905 9.01733C18.7697 9.17907 14.9245 9.18429 11.3036 8.95472C10.7297 8.92342 10.234 9.35646 10.1975 9.93559C10.161 10.5095 10.5992 11.0052 11.1731 11.0417C14.8671 11.2712 18.7906 11.266 22.4845 11.1043C23.0584 11.0782 23.507 10.5878 23.481 10.0139C23.4549 9.43995 22.9645 8.99124 22.3905 9.01733Z" fill="var(--fill-0, #F5F2E9)"/>
<path id="Vector_5" fill-rule="evenodd" clip-rule="evenodd" d="M9.33099 9.67987C11.564 12.4138 13.8754 15.0955 15.9467 17.9547C16.2858 18.419 16.938 18.5233 17.4076 18.1842C17.8719 17.8451 17.9762 17.1929 17.6371 16.7285C15.5397 13.8381 13.2023 11.1251 10.9432 8.35986C10.578 7.91638 9.92057 7.84857 9.47709 8.21379C9.02839 8.579 8.96577 9.23639 9.33099 9.67987Z" fill="var(--fill-0, #F5F2E9)"/>
<path id="Vector_6" fill-rule="evenodd" clip-rule="evenodd" d="M10.0072 10.4732C10.5916 13.3218 10.7533 16.0453 10.7951 18.9306C10.8003 19.5045 11.2751 19.9636 11.849 19.9584C12.4281 19.9479 12.8872 19.4784 12.8768 18.8992C12.8351 15.8784 12.6629 13.0349 12.0525 10.0505C11.9325 9.48707 11.3846 9.12182 10.816 9.24182C10.2525 9.35661 9.88723 9.90967 10.0072 10.4732Z" fill="var(--fill-0, #F5F2E9)"/>
<path id="Vector_7" fill-rule="evenodd" clip-rule="evenodd" d="M10.1014 10.2437C8.41099 13.6246 7.53968 17.3811 5.72925 20.6889C5.45273 21.1898 5.64052 21.8263 6.1466 22.1028C6.65269 22.3793 7.28404 22.1915 7.56056 21.6906C9.38143 18.3619 10.2631 14.5845 11.9692 11.1776C12.2249 10.6611 12.0162 10.035 11.5049 9.77411C10.9884 9.51846 10.3623 9.72717 10.1014 10.2437Z" fill="var(--fill-0, #F5F2E9)"/>
<path id="Vector_8" fill-rule="evenodd" clip-rule="evenodd" d="M11.0317 9.47645C7.66652 10.0712 4.30651 10.3425 0.920427 10.7443C0.346514 10.8121 -0.0604427 11.3286 0.00738335 11.9025C0.0752094 12.4765 0.59178 12.8834 1.16569 12.8156C4.5883 12.4139 7.99003 12.1321 11.397 11.5321C11.9605 11.4278 12.3413 10.8851 12.2422 10.3217C12.1379 9.75297 11.6004 9.3721 11.0317 9.47645Z" fill="var(--fill-0, #F5F2E9)"/>
<path id="Vector_9" fill-rule="evenodd" clip-rule="evenodd" d="M13.3734 7.89065C12.6794 7.85934 12.022 7.81237 11.3438 7.71324C10.7699 7.62977 10.2429 8.02629 10.1594 8.59498C10.0759 9.16368 10.4724 9.69586 11.0411 9.77934C11.7924 9.88891 12.5177 9.94108 13.2794 9.97238C13.8533 9.99847 14.3437 9.55497 14.3646 8.97584C14.3907 8.40193 13.9473 7.91674 13.3734 7.89065Z" fill="var(--fill-0, #F5F2E9)"/>
</g>
</svg>
