<svg preserveAspectRatio="xMidYMid meet" width="534" height="108" overflow="visible" style="display: block;" viewBox="0 0 534 108" fill="none" xmlns="http://www.w3.org/2000/svg">
<path id="Vector" d="M0.0380879 52.0809C0.203395 51.5866 0.368722 50.7628 1.19526 51.0923C3.50956 51.9162 3.34423 50.598 3.34423 49.939C3.34423 48.9504 3.67484 48.7857 4.9973 48.9505C7.80752 49.28 10.7831 48.9504 13.5933 50.2685C14.4198 50.7628 15.2464 50.2685 16.0729 49.939C17.5607 49.1152 21.6933 49.7743 23.1811 51.0923C23.8423 51.5866 24.6688 51.9161 25.4953 52.0809C28.6361 52.4104 31.777 52.9047 34.9178 53.0695C35.9097 53.0695 36.5709 53.399 37.2322 53.8933C37.8934 54.2228 38.3893 54.5523 39.0505 54.3876C42.6873 53.8933 44.8363 54.5524 49.7955 56.3647C51.9445 57.0238 53.9282 58.177 56.2425 58.3418C56.5731 58.3418 57.069 58.3418 57.2343 58.3418C57.7302 57.6828 56.7384 58.0123 56.5731 57.8475C55.7466 57.3533 56.4077 57.3533 56.9037 57.1886C57.7302 57.0238 58.7221 57.0237 59.5486 57.0237C60.2099 57.0237 60.7057 57.1885 61.0363 57.6828C61.3669 58.1771 60.871 58.177 60.5404 58.3418C58.8874 59.0008 59.8792 59.4951 61.2017 59.9894C64.0119 61.1428 67.1527 61.637 70.1282 62.4608C70.6241 62.6256 72.7732 63.6142 71.1201 61.8019C70.7895 61.4723 71.4507 61.4723 71.7813 61.637C72.6078 61.9666 73.5997 62.2961 74.4263 62.6257C77.7324 64.7676 81.2038 65.0971 84.8406 64.7676C85.8324 64.7676 86.9896 63.9437 87.1549 65.5914C87.1549 65.7561 87.6508 66.0856 87.9815 65.7561C88.9733 64.2732 89.7998 65.9209 90.6263 66.2504C90.9569 66.4152 91.2875 66.5799 91.6181 66.5799C91.4528 66.4151 91.4529 66.2504 91.2876 66.0856C90.957 65.7561 90.7917 65.5913 90.4611 65.2618C90.957 65.2618 91.4529 65.2618 92.1141 65.2618C95.4203 65.5913 98.2304 67.5685 101.537 67.7332C101.537 67.239 99.5529 66.9094 100.875 66.0856C101.867 65.5913 103.024 65.7561 104.016 66.4152C106.661 68.2275 109.637 68.7218 112.943 68.8866C116.084 69.0514 118.894 70.5342 121.869 71.5227C124.68 72.5113 125.837 75.4771 129.639 74.9828L126.994 73.9942L127.325 73.8294C128.482 74.6533 129.969 73.0056 131.127 74.3237C131.292 74.4885 131.292 74.6532 131.457 74.818C135.259 75.477 138.896 76.6304 142.863 75.8066C145.508 75.3123 148.649 76.4657 151.459 76.1362C151.955 75.9714 151.955 76.7952 151.955 76.96C151.459 78.7723 151.955 79.1018 154.435 79.9257C158.567 81.2437 162.535 80.4199 166.172 79.5961C167.659 79.2666 169.147 79.2666 170.635 79.2666C172.123 79.2666 173.61 79.2666 175.098 79.1018C175.264 79.1018 175.429 79.1018 175.594 79.1018C177.082 79.9257 177.082 79.9256 178.9 79.2666C179.727 78.937 180.388 78.937 181.215 78.937C182.702 78.937 184.19 78.6076 185.513 78.278C187 77.9485 188.323 77.7838 189.811 77.7838C190.141 77.7838 190.637 77.4542 190.802 77.9485C190.968 78.4428 190.472 78.4428 190.141 78.6076C189.645 78.7723 188.984 78.7723 188.984 79.2666C189.48 79.2666 189.976 79.1018 190.472 79.1018C191.464 79.2666 192.456 79.2666 193.447 79.2666C194.439 79.2666 195.431 79.1018 196.423 78.937C197.58 78.7723 198.572 79.4313 198.407 80.0904C198.076 82.2323 199.398 81.0789 200.39 80.5846C203.2 79.4313 206.176 78.4428 208.656 76.96C209.813 76.3009 210.97 75.4771 211.796 74.4885C212.788 73.5 213.45 72.3466 213.615 71.1933C213.78 70.5343 213.78 70.5342 214.441 70.8638C215.268 71.1933 216.425 71.358 217.086 71.8523C218.574 72.8409 219.401 70.699 220.723 70.5342C221.88 70.3694 220.227 70.0399 220.392 69.7104C221.384 68.7218 221.054 67.0742 222.872 66.5799C224.029 66.0856 225.186 65.5914 225.847 64.6028C226.178 64.1085 226.509 63.9438 226.839 64.2733C227.005 64.438 227.005 64.6028 227.005 64.7676C227.005 65.2618 225.682 65.5913 226.178 65.7561C227.005 65.9208 228.327 65.097 228.823 64.1085C230.145 61.8018 230.641 60.6485 231.468 59.8247C232.295 59.1657 233.452 58.8361 235.931 58.3418C236.262 58.177 236.427 58.1771 236.592 57.8475C237.254 56.3647 238.576 55.5409 239.568 54.3876C239.899 54.0581 240.229 53.7285 240.56 53.2342C240.229 53.5638 239.733 53.7286 239.403 53.8933C239.072 54.2228 238.741 54.3875 238.411 54.2228C238.411 54.2228 238.576 53.5637 238.741 53.399C240.56 51.7513 242.048 48.9504 243.37 48.6209C244.362 48.4562 244.858 47.7971 245.188 47.3028C245.519 46.6438 245.684 46.1495 246.18 45.6552C246.841 44.9962 247.337 44.0076 246.346 43.019C245.684 42.3599 246.015 41.0419 246.346 40.7124C246.676 40.3829 246.676 40.0533 246.842 39.559C247.007 39.2295 247.007 38.7352 247.007 38.4057C247.172 37.5819 247.337 36.9228 248.66 36.4285C248.99 36.2638 249.156 35.1104 249.156 34.4514C249.156 34.2866 248.991 33.9571 248.825 33.9571C247.337 33.4628 247.172 32.9685 247.503 30.9914C247.668 30.1676 247.337 29.6733 247.007 29.1791C246.511 28.8495 246.015 28.6847 245.354 28.6847C243.535 28.6847 242.213 28.0257 240.725 26.7076C240.395 26.3781 239.733 25.719 240.064 25.2247C240.395 24.7304 241.056 25.3895 241.386 25.5543C241.717 25.719 242.048 26.0485 242.378 26.2133C242.213 25.8837 242.048 25.3895 241.717 25.06C240.89 24.2362 239.899 22.9181 238.576 24.0714C238.246 24.4009 236.758 24.0714 236.427 23.4124C235.931 22.5886 237.088 23.5771 237.419 23.0829C237.75 22.5886 237.584 21.7647 237.088 21.9295C235.766 22.259 234.609 21.1057 233.452 21.1057C232.129 21.1057 230.972 19.2933 229.154 18.799C227.005 18.3047 225.021 17.3162 222.541 17.4809C219.401 17.6457 215.433 16.8219 212.458 16.6571C211.631 16.4923 210.805 16.3276 209.978 16.3276C209.317 16.3276 208.49 16.3276 208.325 16.6571C208.16 16.6571 208.16 16.8219 208.16 16.6571C207.994 16.6571 207.994 16.4924 207.829 16.1628C207.498 15.6686 207.829 15.8333 207.994 15.8333C208.325 15.8333 208.986 15.1742 208.656 14.6799C208.325 13.6914 207.829 14.8447 207.664 15.0095C207.168 15.1742 207.003 15.339 207.168 15.339C207.333 15.339 207.664 15.0095 207.829 14.8448C208.16 14.5152 208.821 15.1742 209.647 15.8333C209.978 16.1628 210.143 16.8219 210.474 17.3162C210.805 17.9752 211.466 18.6343 212.458 18.4695C212.458 19.6229 211.631 19.4581 210.97 19.2934C209.978 19.1286 209.482 18.9638 210.639 20.2819C211.631 21.6 212.623 22.9181 214.111 23.9067C215.103 24.5657 216.26 25.5543 214.607 26.3781C214.111 26.5428 213.449 27.5314 215.103 27.8609C215.929 28.0256 216.26 28.3552 216.59 29.1791C217.252 30.3324 217.913 31.6505 218.409 29.6733C218.574 29.179 219.07 29.5085 219.235 29.838C220.062 30.8266 221.219 31.4857 222.376 32.3095C223.368 33.1333 224.36 33.9571 224.856 35.2752C225.517 36.5933 226.509 36.9228 227.501 37.7466C228.658 38.5704 230.807 38.7352 229.815 40.7124C229.815 40.7124 229.815 40.8771 229.98 41.0418C230.476 41.0418 231.137 41.0419 231.303 40.8771C232.46 38.7352 233.617 40.5476 234.939 41.7009C235.601 42.1952 236.097 42.8543 236.758 43.1838C238.246 44.1724 238.246 44.8314 237.419 45.6552C238.08 45.82 238.741 45.9847 239.403 46.1495C240.064 46.3143 240.56 46.6438 240.56 47.3028C240.56 47.7971 240.394 48.2913 239.568 47.6323C239.237 47.4675 238.907 47.3028 238.741 47.6323C238.741 47.7971 238.907 48.1266 239.072 48.2914C240.89 49.2799 242.213 50.5981 244.362 51.4219C246.842 52.4105 249.817 53.399 251.801 55.2114C253.619 56.6942 255.933 56.859 257.586 58.1771C257.752 58.3418 257.917 58.3418 258.082 58.3418C259.24 58.6713 257.091 56.3647 259.074 57.518C259.901 58.0123 260.397 58.6713 261.058 59.1656C261.719 59.6599 262.546 59.8247 263.042 59.66C264.529 58.6714 265.025 59.3304 265.191 60.6485C265.356 61.1428 265.687 61.8018 266.513 61.637C269.158 60.978 270.646 62.1313 272.133 64.1085C272.629 64.7675 273.787 65.5914 274.944 65.5914C276.431 65.4266 277.754 66.4151 279.076 66.5799C281.887 66.7447 283.87 68.0628 285.854 69.5457C287.176 70.5343 288.499 69.7104 289.987 70.0399C292.797 70.699 294.615 72.1818 296.103 73.9942C296.93 74.9827 297.921 75.3123 298.913 74.4885C299.74 73.8295 300.236 73.1704 301.393 74.818C301.723 75.3123 303.872 77.1247 305.36 75.4771C305.526 75.3123 307.179 76.3009 308.17 76.6304C309.162 76.9599 311.477 76.4656 311.146 78.4428C311.146 78.6075 311.807 78.9371 311.973 78.7723C312.799 77.7837 314.121 78.6076 315.113 78.6076C318.585 78.7723 320.899 80.7494 323.709 82.0675C326.024 83.2209 328.834 83.7152 331.313 84.3742C331.479 84.3742 331.975 84.3742 331.975 84.2094C331.975 82.5618 333.462 83.8799 333.958 83.8799C337.264 84.5389 340.571 85.8571 344.042 85.198C344.869 85.0333 344.703 85.6923 344.869 86.0219C345.034 86.3514 345.364 86.6808 344.538 86.6808C344.042 86.6808 343.381 86.0219 343.381 86.8457C343.381 87.0104 344.538 87.5046 344.869 87.5046C348.836 86.3513 352.473 89.4818 356.275 88.8227C359.416 88.3284 362.556 89.6466 365.532 88.9875C365.863 88.9875 366.193 88.9875 366.358 88.9875C370.656 90.4704 375.12 90.7999 379.583 90.6352C380.244 90.6352 380.575 90.9646 380.74 91.2941C380.906 91.6237 381.401 92.118 381.732 91.9532C383.55 90.6351 385.534 92.6123 387.518 91.9532C388.675 91.459 390.493 91.2942 391.65 92.777C391.981 93.2713 393.304 93.2714 394.295 93.1066C397.271 92.6123 400.577 92.4475 403.222 93.9304C405.536 95.2485 408.181 95.578 411.157 95.0838C414.132 94.5895 417.273 95.4132 420.249 95.7427C425.208 96.237 430.498 95.578 435.457 96.8961C437.936 95.0837 440.912 96.2371 443.722 96.4018C449.012 96.7313 454.632 95.9075 459.426 97.0608C463.063 97.8846 466.7 97.2256 470.171 98.2142C471.163 98.5437 472.32 98.7085 473.312 97.7199C474.469 96.7313 476.453 98.2141 478.271 97.8846C478.602 99.5322 479.429 98.8732 480.586 98.2142C480.916 98.0494 481.743 98.0494 481.908 98.5437C482.073 99.038 482.073 99.3675 482.735 98.8732C484.553 97.5552 486.371 98.0494 488.025 98.8732C489.182 99.3675 490.008 99.697 489.678 98.2142C489.512 97.2256 490.173 97.7199 490.835 97.7199C494.141 97.7199 497.447 97.7199 500.918 97.5552C503.233 97.3904 506.043 96.8961 508.523 97.7199C510.176 98.2142 511.829 97.3904 513.316 97.2256C517.945 96.5666 522.078 97.8847 526.541 98.0494C527.037 98.0494 527.533 98.5437 527.864 99.038C528.525 99.8618 529.351 100.521 531.004 100.686C531.996 100.686 532.823 101.345 533.484 101.839C534.476 102.663 533.98 103.157 532.492 103.322C529.186 103.487 526.21 104.475 523.07 104.64C520.921 104.805 518.772 105.628 516.623 105.134C515.796 104.969 514.97 104.969 514.639 105.628C514.143 106.617 512.325 106.287 512.325 106.123C509.018 105.299 506.043 106.288 502.902 106.617C499.927 106.947 496.621 107.111 493.81 106.617C491.496 106.123 490.173 107.276 488.355 107.276C481.577 107.111 474.965 107.77 468.188 107.111C467.196 106.947 466.039 107.276 464.882 107.441C462.567 107.441 460.418 107.441 457.939 107.276C455.624 107.111 452.483 106.782 450.169 107.606C448.847 108.1 448.02 108.1 446.698 107.77C444.714 107.441 442.896 107.276 440.912 107.606C436.283 108.429 431.985 107.441 427.357 107.111C425.538 106.947 423.389 107.441 422.067 107.111C419.587 106.617 417.108 106.947 414.628 106.617C411.487 106.123 408.181 104.969 405.04 105.134C401.734 105.299 399.255 103.651 396.61 103.816C392.808 104.146 389.667 103.816 386.03 103.322C385.865 103.322 385.699 103.322 385.534 103.322C382.063 103.981 380.079 103.322 375.616 103.322C372.806 103.322 370.161 102.498 367.846 102.004C363.548 101.18 359.416 101.674 355.283 100.85C352.803 100.521 350.489 99.038 347.844 99.8618C347.183 97.8846 344.538 98.5437 343.215 98.2142C338.752 97.5551 334.62 95.4132 329.826 95.2485C325.528 95.0837 321.56 93.7656 317.593 92.118C315.279 91.1294 312.303 91.1294 309.658 90.7999C307.675 90.6351 305.856 89.4818 303.707 89.6465C302.715 89.6465 301.558 89.4818 301.558 87.9989C301.558 87.3399 298.913 87.5047 297.425 87.0104C292.797 85.8571 287.672 86.0218 283.87 82.2323C282.878 81.4084 280.399 81.0789 278.746 80.5846L275.936 79.7608C275.44 80.5846 274.448 80.2551 273.621 79.7608C272.96 79.4313 271.803 79.2666 271.968 78.6076C272.134 78.1133 273.125 78.937 273.621 78.937C273.952 78.937 274.117 78.6076 274.282 78.6076C272.133 78.2781 270.315 76.9599 268.497 75.9713C268.166 75.8066 267.505 75.1476 267.34 75.8066C267.174 76.1361 268.497 76.96 267.505 76.96C266.348 76.96 266.348 75.9713 266.017 75.4771C265.521 74.818 265.025 74.4885 264.199 74.3237C261.058 73.8294 258.413 72.8409 255.437 70.8638C253.619 69.5457 251.305 68.3923 249.321 66.9094C248.329 66.0856 247.007 65.2618 245.519 65.7561C244.197 66.0856 242.709 64.9323 241.552 64.1085C237.419 61.1428 232.46 59.1657 228.658 55.5409C226.674 53.399 225.021 51.4218 222.707 49.2799C220.062 46.8085 216.756 45.4904 214.441 42.8543C214.276 42.6895 213.945 42.5248 213.78 42.36C213.945 42.8543 214.276 43.1838 214.441 43.6781C214.607 44.3371 215.929 44.8313 215.433 45.1609C214.937 45.4904 214.111 44.6667 213.449 44.0076C209.482 40.0533 205.515 36.2638 201.878 32.1447C200.886 31.1562 200.06 30.0028 199.233 29.0142L197.911 27.3666C197.415 26.8723 197.084 26.3781 196.588 25.5543C196.092 24.8952 195.596 24.0714 195.1 23.2476C194.935 22.7533 194.604 22.4238 194.439 21.9295L193.778 20.4466C193.117 18.4695 192.29 15.8333 192.786 12.3733C192.951 11.7143 193.117 10.8905 193.282 10.2315C193.613 9.57241 193.943 8.74852 194.274 8.08947C194.604 7.43043 195.1 6.77146 195.596 6.11241C196.092 5.45337 196.588 5.1238 197.084 4.62952C199.233 2.81714 201.217 1.99329 203.035 1.49901C206.672 0.510435 209.482 0.510435 212.292 0.675196C214.607 1.00472 215.764 -0.148552 218.078 0.0162099C223.368 0.675257 228.327 1.66377 233.121 3.97043C235.766 5.12376 238.576 6.11233 240.725 8.08947C242.213 9.40757 243.37 8.91328 244.858 9.73709C248.99 12.3733 253.454 15.3391 256.595 20.1172C257.587 21.6 258.909 23.7419 260.066 25.719C260.727 26.7076 261.058 28.0257 260.727 28.52C259.901 29.8381 260.893 31.3209 261.389 32.1447C263.207 34.7809 263.207 38.2409 262.711 41.3714C262.05 45.9847 261.058 50.2685 258.413 53.7285C257.917 54.3875 257.256 56.5295 255.933 57.6828C255.437 58.1771 255.933 58.177 256.099 58.3418C256.76 59.1656 256.264 59.9895 254.942 60.4838C253.454 61.1428 252.462 62.1314 251.305 63.4495C248.66 66.7447 245.519 69.2161 242.709 71.8523C239.403 74.6532 235.766 77.1247 232.129 79.4314C230.311 80.5847 228.492 81.5733 226.674 82.7266C224.856 83.7152 223.037 84.8685 221.054 85.857C219.896 86.5161 218.739 87.0104 217.582 87.6695C216.425 88.1638 215.268 88.658 214.111 89.1523L212.292 89.9761L210.474 90.6352C209.317 91.1294 208.16 91.6237 207.003 92.2828C204.523 93.4361 201.051 93.4361 197.911 94.2599C192.29 95.7428 186.504 95.7428 180.884 96.7314C179.231 97.0609 177.909 96.7313 176.421 96.5665C175.098 96.4018 173.776 96.0722 172.453 97.0608C171.131 97.8846 169.808 96.7313 168.486 96.5665C165.51 96.4018 162.7 96.7313 159.89 96.5665C154.27 96.0723 148.814 95.4132 143.359 94.4247C142.533 94.2599 140.88 94.2599 142.533 93.2713C141.872 92.777 141.21 93.1065 140.714 93.2713C139.888 93.4361 139.061 93.4361 140.053 94.2599C140.218 94.4247 140.384 94.7542 140.549 94.9189C140.218 94.9189 139.888 94.919 139.723 94.7542C137.408 92.9418 134.267 93.1066 131.457 92.2828C124.514 90.3056 117.406 89.1523 110.298 88.4933C109.471 88.3285 108.645 88.3285 107.818 87.8342C104.512 86.3513 101.041 85.6923 97.5693 86.0219C97.4039 86.0219 97.0734 86.1866 97.0734 86.0219C93.7672 83.0561 88.9733 84.3742 85.1712 82.3971C83.6835 81.738 81.865 80.2551 79.5507 80.9142C79.3854 80.9142 78.7242 80.7494 78.5589 80.5846C76.7406 78.4427 73.4344 78.7723 71.1201 78.278C68.8058 77.7837 68.4752 77.1247 67.3181 76.1362C66.8222 75.6419 65.4996 75.4771 64.6731 75.4771C60.0445 75.1475 55.2506 74.4885 51.4485 72.1818C47.9771 70.2047 44.671 71.0285 41.3649 70.3695C40.8689 70.2047 40.5383 70.2046 40.2077 69.8751C39.0505 68.557 37.5628 68.557 36.075 69.0513C35.9097 69.8751 35.0832 69.7104 34.2567 69.5457C34.2567 69.5457 34.0914 69.2161 34.2567 69.0513C34.7526 68.557 35.4138 68.8866 36.075 69.0513C35.5791 68.0627 34.0914 68.0628 33.4301 68.0628C28.3056 68.3923 23.8422 65.5913 18.883 64.9323C17.7259 64.7675 16.5688 64.1085 15.4116 64.438C14.9157 64.6028 14.2545 64.6027 14.0892 64.1085C13.428 62.9551 14.7504 63.779 15.081 63.779C16.5688 62.7905 15.577 62.1314 14.0892 61.4723C14.2545 61.8018 14.9157 62.4608 14.2545 62.4608C13.0973 62.6256 12.7667 61.6371 12.2707 61.1428C10.6177 60.1542 8.79936 59.4951 6.65037 59.1656C4.00546 58.5066 -0.457833 53.7285 0.0380879 52.0809ZM287.176 82.8913C287.342 83.0561 287.672 83.2209 287.838 83.2209C288.334 83.2209 288.995 84.0447 289.325 83.5504C289.656 83.3857 288.83 83.2209 288.499 82.8913C288.168 83.0561 287.507 82.3971 287.176 82.8913ZM230.476 54.5523C229.65 54.5523 229.319 53.2342 228.658 53.7285C228.327 53.8933 229.154 54.3875 229.484 54.5523C230.145 55.0466 230.807 55.2114 231.468 55.5409C231.137 55.3762 230.807 55.0466 230.476 54.5523ZM235.435 43.8428C235.601 44.1723 235.766 44.3371 235.931 44.6666C236.758 45.6552 236.923 44.9961 237.254 44.6666C236.758 44.5018 236.097 44.1723 235.435 43.8428ZM207.829 15.339C207.498 15.5038 207.498 15.6685 207.664 15.8333C207.994 16.1628 208.49 16.4924 208.986 16.8219C208.986 16.6572 208.986 16.4923 208.986 16.3276C208.821 15.998 208.821 15.8333 208.656 15.6686C208.325 15.3391 208.16 15.339 207.829 15.339ZM247.007 41.7009C247.668 41.8657 247.337 41.0419 247.503 40.8771C247.668 40.3828 247.999 39.559 247.668 39.559C247.337 39.559 247.337 39.7238 247.172 40.0533C247.172 40.3828 247.007 40.5476 246.842 40.7124C246.842 41.0419 246.511 41.5361 247.007 41.7009ZM113.273 70.2047C112.943 71.0285 114.596 70.699 115.422 71.0285C116.249 71.358 117.406 71.5228 117.902 71.1933C118.067 71.0285 116.91 70.8637 116.249 70.6989C115.257 71.358 114.1 68.3923 113.273 70.2047ZM101.371 67.7332C101.867 68.3923 102.528 68.557 103.355 68.2275C103.52 68.2275 103.52 67.898 103.355 67.7332C102.694 67.0742 102.033 67.4037 101.371 67.7332Z" fill="var(--fill-0, #D56B45)"/>
</svg>
