<svg preserveAspectRatio="xMidYMid meet" width="100%" height="100%" overflow="visible" style="display: block;" viewBox="0 0 212 80" fill="none" xmlns="http://www.w3.org/2000/svg">
<svg x="24.87" y="13.54" width="161.86" height="51.64" viewBox="0 0 164.84 54.6457" preserveAspectRatio="none">
<path d="M1.50031 14.464C8.02541 44.4895 50.9536 8.31634 64.0897 3.86152C73.3622 0.743149 82.463 0.743192 91.8213 3.68337C108.134 8.85096 118.265 30.5013 107.791 46.1823C103.498 52.5972 90.6194 56.963 86.3266 48.3206C70.3572 16.5132 144.537 2.97056 163.34 23.0172" stroke="var(--stroke-0, #D56B45)" stroke-width="3" stroke-linecap="round"/>
</svg>
<svg x="175.22" y="23.74" width="11.94" height="11.84" viewBox="0 0 14.9327 15.0604" preserveAspectRatio="none">
<path d="M1.50035 13.1719C4.07604 12.5482 6.7376 12.0137 9.39916 12.2809C9.82844 12.37 13.3485 13.3501 13.3485 13.3501C13.7778 12.8155 12.4041 3.54952 12.8334 1.5003" stroke="var(--stroke-0, #D56B45)" stroke-width="3" stroke-linecap="round"/>
</svg>
</svg>
