<svg width="28" height="28" viewBox="0 0 28 28" fill="none" xmlns="http://www.w3.org/2000/svg">
<path d="M14.3 3.2C14.1 7.8 13.8 10.6 14 14.2" stroke="#D56B45" stroke-width="1.8" stroke-linecap="round"/>
<path d="M13.8 14.5C14.1 18.2 14.3 21 13.9 24.8" stroke="#D56B45" stroke-width="1.8" stroke-linecap="round"/>
<path d="M3.4 13.6C7.8 13.9 10.8 14.2 14.2 14" stroke="#D56B45" stroke-width="1.8" stroke-linecap="round"/>
<path d="M14.2 14C18 13.8 21.2 14.1 24.6 14.3" stroke="#D56B45" stroke-width="1.8" stroke-linecap="round"/>
<path d="M6.2 6.5C8.8 8.6 11.1 10.9 13.8 13.8" stroke="#D56B45" stroke-width="1.8" stroke-linecap="round"/>
<path d="M14.2 14.4C16.8 17.1 19.2 19.4 21.9 21.8" stroke="#D56B45" stroke-width="1.8" stroke-linecap="round"/>
<path d="M21.6 6.3C19.3 8.7 17 11 14.3 13.8" stroke="#D56B45" stroke-width="1.8" stroke-linecap="round"/>
<path d="M13.9 14.3C11.2 17.1 8.9 19.2 6.4 21.6" stroke="#D56B45" stroke-width="1.8" stroke-linecap="round"/>
</svg>
