<svg preserveAspectRatio="none" width="100%" height="100%" overflow="visible" style="display: block;" viewBox="0 0 30.331 29.6408" fill="none" xmlns="http://www.w3.org/2000/svg">
<g id="Group">
<path id="Vector" fill-rule="evenodd" clip-rule="evenodd" d="M13.7677 10.9796C10.8901 8.53785 8.55842 5.63002 6.80625 2.24219C6.45582 1.56741 5.64041 1.31002 4.97997 1.67175C4.32628 2.03349 4.07688 2.87525 4.42732 3.55699C6.35471 7.26481 8.90215 10.4509 12.0561 13.1292C12.6289 13.6161 13.4847 13.5326 13.9565 12.9413C14.4282 12.3431 14.3406 11.4665 13.7677 10.9796Z" fill="var(--fill-0, #D56B45)"/>
<path id="Vector_2" fill-rule="evenodd" clip-rule="evenodd" d="M12.2333 1.47005C12.3815 4.28048 12.5164 7.09091 12.6848 9.90135C12.732 10.6666 13.3722 11.2509 14.1135 11.2022C14.8548 11.1535 15.4209 10.4927 15.3737 9.72743C15.2053 6.92396 15.0704 4.12049 14.9222 1.31006C14.8818 0.546929 14.2415 -0.0409006 13.5002 0.00222981C12.7589 0.0453602 12.1861 0.702741 12.2333 1.47005Z" fill="var(--fill-0, #D56B45)"/>
<path id="Vector_3" fill-rule="evenodd" clip-rule="evenodd" d="M22.2382 2.04052C20.513 4.72574 18.5587 7.20224 16.5909 9.70658C16.1192 10.3048 16.2067 11.1814 16.7863 11.6614C17.3659 12.1484 18.215 12.0579 18.68 11.4596C20.7018 8.89268 22.71 6.33963 24.4891 3.57789C24.9002 2.93789 24.725 2.07531 24.105 1.65096C23.4917 1.22661 22.6493 1.40052 22.2382 2.04052Z" fill="var(--fill-0, #D56B45)"/>
<path id="Vector_4" fill-rule="evenodd" clip-rule="evenodd" d="M28.9211 12.0231C24.2442 12.2388 19.2774 12.2457 14.6005 11.9396C13.8592 11.8979 13.2189 12.4753 13.1718 13.2475C13.1246 14.0127 13.6907 14.6735 14.432 14.7222C19.2033 15.0283 24.2711 15.0214 29.0425 14.8057C29.7838 14.7709 30.3633 14.117 30.3296 13.3518C30.2959 12.5866 29.6624 11.9883 28.9211 12.0231Z" fill="var(--fill-0, #D56B45)"/>
<path id="Vector_5" fill-rule="evenodd" clip-rule="evenodd" d="M12.0525 12.9065C14.9369 16.5517 17.9223 20.1274 20.5978 23.9396C21.0358 24.5587 21.8782 24.6978 22.4848 24.2456C23.0845 23.7934 23.2193 22.9239 22.7812 22.3047C20.0721 18.4508 17.053 14.8334 14.135 11.1465C13.6632 10.5552 12.8141 10.4648 12.2412 10.9517C11.6617 11.4387 11.5808 12.3152 12.0525 12.9065Z" fill="var(--fill-0, #D56B45)"/>
<path id="Vector_6" fill-rule="evenodd" clip-rule="evenodd" d="M12.926 13.9642C13.6808 17.7625 13.8897 21.3938 13.9436 25.2407C13.9504 26.006 14.5636 26.6181 15.3049 26.6112C16.053 26.5972 16.646 25.9711 16.6325 25.199C16.5786 21.1711 16.3563 17.3799 15.5678 13.4007C15.4128 12.6494 14.7052 12.1624 13.9706 12.3224C13.2428 12.4755 12.771 13.2129 12.926 13.9642Z" fill="var(--fill-0, #D56B45)"/>
<path id="Vector_7" fill-rule="evenodd" clip-rule="evenodd" d="M13.0477 13.6583C10.8642 18.1661 9.73876 23.1748 7.40028 27.5852C7.04311 28.2531 7.28567 29.1017 7.93936 29.4704C8.59306 29.8391 9.40855 29.5886 9.76572 28.9208C12.1177 24.4826 13.2566 19.4461 15.4603 14.9035C15.7905 14.2148 15.5209 13.38 14.8605 13.0322C14.1933 12.6913 13.3846 12.9696 13.0477 13.6583Z" fill="var(--fill-0, #D56B45)"/>
<path id="Vector_8" fill-rule="evenodd" clip-rule="evenodd" d="M14.2493 12.6353C9.90258 13.4283 5.56258 13.79 1.18888 14.3257C0.44758 14.4161 -0.0780719 15.1048 0.00953683 15.8701C0.0971455 16.6353 0.764382 17.1779 1.50569 17.0875C5.92656 16.5518 10.3205 16.1761 14.7211 15.3761C15.4489 15.237 15.9409 14.5135 15.8128 13.7622C15.6781 13.004 14.9839 12.4961 14.2493 12.6353Z" fill="var(--fill-0, #D56B45)"/>
<path id="Vector_9" fill-rule="evenodd" clip-rule="evenodd" d="M17.2739 10.5209C16.3776 10.4791 15.5285 10.4165 14.6524 10.2843C13.9111 10.173 13.2304 10.7017 13.1226 11.46C13.0148 12.2182 13.5269 12.9278 14.2615 13.0391C15.2319 13.1852 16.1687 13.2548 17.1526 13.2965C17.8939 13.3313 18.5273 12.74 18.5543 11.9678C18.588 11.2026 18.0152 10.5556 17.2739 10.5209Z" fill="var(--fill-0, #D56B45)"/>
</g>
</svg>
