<svg preserveAspectRatio="xMidYMid meet" width="100%" height="100%" overflow="visible" style="display: block;" viewBox="0 0 184 36" fill="none" xmlns="http://www.w3.org/2000/svg">
<g id="03-smooth-17">
<path id="Vector" d="M2.13719 34.0285C4.55335 27.4285 9.38568 21.8571 15.6119 17.9999C39.9594 2.65706 68.3958 18.6856 92.2786 26.6571C98.7837 28.7999 105.567 31.3713 112.351 32.5713C130.658 35.8285 153.891 29.5713 168.295 18.6856C172.384 15.5999 175.172 10.8856 178.703 7.62849" stroke="var(--stroke-0, #D56B45)" stroke-width="3" stroke-linecap="round"/>
<path id="Vector_2" d="M59.1031 22.7143C45.5354 19.0286 27.5072 20.0572 16.3556 28.8858" stroke="var(--stroke-0, #D56B45)" stroke-width="3" stroke-linecap="round"/>
<path id="Vector_3" d="M182.327 21.857C179.911 15.4284 178.982 8.74272 180.097 2.05701C180.283 1.11415 178.889 3.68558 178.238 4.45701C177.03 5.91415 175.45 7.19987 173.685 8.14273C168.574 10.7999 161.79 10.457 156.493 8.39987" stroke="var(--stroke-0, #D56B45)" stroke-width="3" stroke-linecap="round"/>
</g>
</svg>
