<svg preserveAspectRatio="none" width="100%" height="100%" overflow="visible" style="display: block;" viewBox="0 0 39.1367 37.051" fill="none" xmlns="http://www.w3.org/2000/svg">
<g id="Group">
<path id="Vector" fill-rule="evenodd" clip-rule="evenodd" d="M17.7648 13.7245C14.0518 10.6723 11.0431 7.03753 8.78226 2.80274C8.33008 1.95926 7.27794 1.63752 6.42577 2.08969C5.58229 2.54187 5.26049 3.59406 5.71267 4.44623C8.19962 9.08102 11.4866 13.0636 15.5562 16.4115C16.2953 17.0202 17.3996 16.9158 18.0083 16.1767C18.617 15.4288 18.504 14.3332 17.7648 13.7245Z" fill="var(--fill-0, #F5F2E9)"/>
<path id="Vector_2" fill-rule="evenodd" clip-rule="evenodd" d="M15.7849 1.83756C15.9762 5.3506 16.1501 8.86364 16.3675 12.3767C16.4284 13.3332 17.2545 14.0636 18.211 14.0028C19.1675 13.9419 19.898 13.1158 19.8371 12.1593C19.6197 8.65495 19.4457 5.15062 19.2544 1.63757C19.2023 0.683661 18.3762 -0.0511258 17.4197 0.00278729C16.4631 0.0567003 15.724 0.878427 15.7849 1.83756Z" fill="var(--fill-0, #F5F2E9)"/>
<path id="Vector_3" fill-rule="evenodd" clip-rule="evenodd" d="M28.6945 2.55066C26.4684 5.90718 23.9468 9.00279 21.4076 12.1332C20.7989 12.8811 20.9119 13.9768 21.6597 14.5768C22.4076 15.1855 23.5033 15.0724 24.1033 14.3245C26.712 11.1159 29.3033 7.92453 31.5989 4.47236C32.1293 3.67236 31.9032 2.59414 31.1032 2.0637C30.3119 1.53327 29.2249 1.75066 28.6945 2.55066Z" fill="var(--fill-0, #F5F2E9)"/>
<path id="Vector_4" fill-rule="evenodd" clip-rule="evenodd" d="M37.3176 15.0289C31.2828 15.2984 24.8741 15.3071 18.8393 14.9245C17.8828 14.8724 17.0567 15.5941 16.9958 16.5593C16.935 17.5158 17.6654 18.3419 18.6219 18.4028C24.7784 18.7854 31.3176 18.7767 37.4741 18.5071C38.4307 18.4637 39.1784 17.6463 39.1349 16.6898C39.0915 15.7333 38.2741 14.9854 37.3176 15.0289Z" fill="var(--fill-0, #F5F2E9)"/>
<path id="Vector_5" fill-rule="evenodd" clip-rule="evenodd" d="M15.5516 16.1331C19.2734 20.6896 23.1256 25.1592 26.5778 29.9245C27.143 30.6984 28.23 30.8722 29.0126 30.307C29.7865 29.7418 29.9604 28.6548 29.3952 27.8809C25.8995 23.0635 22.0039 18.5418 18.2387 13.9331C17.63 13.194 16.5343 13.0809 15.7951 13.6896C15.0473 14.2983 14.9429 15.394 15.5516 16.1331Z" fill="var(--fill-0, #F5F2E9)"/>
<path id="Vector_6" fill-rule="evenodd" clip-rule="evenodd" d="M16.6787 17.4553C17.6526 22.2031 17.9222 26.7422 17.9918 31.5509C18.0005 32.5074 18.7918 33.2726 19.7483 33.2639C20.7135 33.2466 21.4787 32.4639 21.4613 31.4987C21.3918 26.4639 21.1048 21.7248 20.0875 16.7509C19.8875 15.8118 18.9744 15.203 18.0266 15.403C17.0875 15.5943 16.4787 16.5161 16.6787 17.4553Z" fill="var(--fill-0, #F5F2E9)"/>
<path id="Vector_7" fill-rule="evenodd" clip-rule="evenodd" d="M16.8357 17.0728C14.0183 22.7076 12.5661 28.9685 9.54875 34.4815C9.08788 35.3163 9.40086 36.3771 10.2443 36.838C11.0878 37.2989 12.1401 36.9858 12.6009 36.151C15.6357 30.6032 17.1052 24.3076 19.9487 18.6293C20.3748 17.7685 20.027 16.725 19.1748 16.2902C18.3139 15.8641 17.2705 16.212 16.8357 17.0728Z" fill="var(--fill-0, #F5F2E9)"/>
<path id="Vector_8" fill-rule="evenodd" clip-rule="evenodd" d="M18.3862 15.7941C12.7775 16.7854 7.17752 17.2376 1.53404 17.9071C0.577523 18.0202 -0.100738 18.8811 0.0123056 19.8376C0.125349 20.7941 0.986299 21.4724 1.94282 21.3593C7.64717 20.6898 13.3167 20.2202 18.995 19.2202C19.9341 19.0463 20.5689 18.1419 20.4037 17.2028C20.2298 16.2549 19.334 15.6202 18.3862 15.7941Z" fill="var(--fill-0, #F5F2E9)"/>
<path id="Vector_9" fill-rule="evenodd" clip-rule="evenodd" d="M22.2889 13.1511C21.1324 13.0989 20.0367 13.0206 18.9063 12.8554C17.9498 12.7163 17.0715 13.3771 16.9324 14.325C16.7932 15.2728 17.4541 16.1598 18.4019 16.2989C19.6541 16.4815 20.8628 16.5685 22.1323 16.6206C23.0889 16.6641 23.9062 15.925 23.941 14.9597C23.9845 14.0032 23.2454 13.1946 22.2889 13.1511Z" fill="var(--fill-0, #F5F2E9)"/>
</g>
</svg>
