<svg width="28" height="28" viewBox="0 0 28 28" fill="none" xmlns="http://www.w3.org/2000/svg">
<path d="M14.8 3.8C14.6 5.4 13.2 8.6 11.4 11.8C9.5 15.2 7.8 18.1 7.2 20.4C6.4 23.2 7.8 25 10.2 25.2C12.8 25.4 15.1 24 17.2 21.8C19.4 19.4 21 16.2 21.6 13.2C22.3 9.8 21.4 6.4 18.6 4.6C16.8 3.4 15.4 3.4 14.8 3.8Z" stroke="#D56B45" stroke-width="1.8" stroke-linecap="round" stroke-linejoin="round"/>
<path d="M14.8 3.8C14.4 7.2 13.2 11.8 12.4 15.6C11.8 18.4 11.4 21 11.6 23.4" stroke="#D56B45" stroke-width="1.8" stroke-linecap="round"/>
</svg>
