<svg width="28" height="28" viewBox="0 0 28 28" fill="none" xmlns="http://www.w3.org/2000/svg">
<path d="M14.2 3.5C13.1 3.4 11.2 4.1 9.8 5.6C8.3 7.2 7.4 9.4 7.3 11.8C7.2 14.3 8.6 17.1 10.4 19.5C11.9 21.5 13.5 23.2 14.1 23.9C14.6 23.1 16.1 21.2 17.5 19.2C19.3 16.6 20.8 13.9 20.7 11.4C20.6 9.1 19.8 7 18.3 5.5C16.9 4.1 15.3 3.5 14.2 3.5Z" stroke="#D56B45" stroke-width="1.8" stroke-linecap="round" stroke-linejoin="round"/>
<path d="M11.8 11.5C11.7 10.3 12.7 9.2 14 9.1C15.3 9 16.3 10 16.3 11.2C16.2 12.4 15.2 13.4 14 13.5C12.8 13.5 11.9 12.6 11.8 11.5Z" stroke="#D56B45" stroke-width="1.8" stroke-linecap="round"/>
</svg>
