<svg width="28" height="28" viewBox="0 0 28 28" fill="none" xmlns="http://www.w3.org/2000/svg">
<path d="M9.5 10.8C11.1 10.7 12.2 9.5 12.1 7.9C12 6.4 10.7 5.2 9.2 5.3C7.6 5.4 6.5 6.7 6.6 8.2C6.7 9.8 8 10.9 9.5 10.8Z" stroke="#D56B45" stroke-width="1.8" stroke-linecap="round"/>
<path d="M18.8 10.8C20.4 10.7 21.5 9.5 21.4 7.9C21.3 6.4 20 5.2 18.5 5.3C16.9 5.4 15.8 6.7 15.9 8.2C16 9.8 17.3 10.9 18.8 10.8Z" stroke="#D56B45" stroke-width="1.8" stroke-linecap="round"/>
<path d="M4.2 22.5C4.4 19.1 5.8 16.2 7.8 14.4C9.2 13.1 10.9 12.5 12.4 12.8" stroke="#D56B45" stroke-width="1.8" stroke-linecap="round"/>
<path d="M15.8 12.8C17.3 12.5 19 13.1 20.4 14.4C22.4 16.2 23.8 19.1 24 22.5" stroke="#D56B45" stroke-width="1.8" stroke-linecap="round"/>
<path d="M12.4 12.8C13.2 13 13.9 13.5 14.1 14.2C14.3 13.5 15 13 15.8 12.8" stroke="#D56B45" stroke-width="1.8" stroke-linecap="round"/>
</svg>
