<svg preserveAspectRatio="none" width="100%" height="100%" overflow="visible" style="display: block;" viewBox="0 0 54 20.2804" fill="none" xmlns="http://www.w3.org/2000/svg">
<g id="Group 103">
<g id="NaM">
<path id="Vector" d="M40.3742 19.9211V0.49829H43.8404L47.1572 11.6739L50.4442 0.49829H54V19.9211H51.4302V4.32309L47.964 16.0365H46.2608L42.7946 4.32309V19.9211H40.3742Z" fill="var(--fill-0, #D56B45)"/>
<path id="Vector_2" d="M25.4612 20.2803C23.748 20.2803 22.4133 19.8819 21.4571 19.085C20.5208 18.2882 20.0527 17.1826 20.0527 15.7682C20.0527 14.4136 20.5009 13.3777 21.3973 12.6606C22.2938 11.9434 23.6185 11.5848 25.3715 11.5848H30.3916V11.1366C30.3916 9.94138 30.1127 9.09474 29.5549 8.59672C28.9971 8.0987 28.0509 7.84969 26.7162 7.84969C24.9034 7.84969 23.24 8.26803 21.726 9.1047L20.8894 6.86361C22.6623 5.92733 24.6743 5.45919 26.9254 5.45919C29.0569 5.45919 30.6107 5.89745 31.5868 6.77396C32.5829 7.63056 33.0809 8.98518 33.0809 10.8378V19.9217H31.0789L30.78 18.5472C29.9832 19.1249 29.1465 19.5631 28.27 19.8619C27.3935 20.1408 26.4572 20.2803 25.4612 20.2803ZM25.9393 17.8599C27.6126 17.8599 29.0967 17.4216 30.3916 16.5451V13.7961H25.4612C24.5448 13.7961 23.8675 13.9554 23.4293 14.2742C23.0109 14.5929 22.8018 15.071 22.8018 15.7085C22.8018 16.4256 23.0607 16.9635 23.5787 17.322C24.0966 17.6806 24.8835 17.8599 25.9393 17.8599Z" fill="var(--fill-0, #D56B45)"/>
<path id="Vector_3" d="M0 19.9211V0.498253H3.28694L10.5481 14.8412V0.498253H13.088V19.9211H10.3688L2.53991 4.44258V19.9211H0Z" fill="var(--fill-0, #D56B45)"/>
</g>
<path id="Line 64 (Stroke)" d="M31.7439 0V1.99208H21.7835V0H31.7439Z" fill="var(--fill-0, #D56B45)"/>
</g>
</svg>
